<svg width="302" height="452" viewBox="0 0 302 452" fill="none" xmlns="http://www.w3.org/2000/svg">
<rect x="299" y="430" width="3" height="19" rx="1.5" fill="#887474"/>
<rect y="429" width="3" height="19" rx="1.5" fill="#887474"/>
<rect x="299" y="410" width="3" height="19" rx="1.5" fill="#887474"/>
<rect y="409" width="3" height="19" rx="1.5" fill="#887474"/>
<rect x="299" y="391" width="3" height="19" rx="1.5" fill="#887474"/>
<rect y="390" width="3" height="19" rx="1.5" fill="#887474"/>
<rect x="299" y="371" width="3" height="19" rx="1.5" fill="#887474"/>
<rect y="370" width="3" height="19" rx="1.5" fill="#887474"/>
<rect x="299" y="352" width="3" height="19" rx="1.5" fill="#887474"/>
<rect y="351" width="3" height="19" rx="1.5" fill="#887474"/>
<rect x="299" y="332" width="3" height="19" rx="1.5" fill="#887474"/>
<rect y="331" width="3" height="19" rx="1.5" fill="#887474"/>
<rect x="299" y="312" width="3" height="19" rx="1.5" fill="#887474"/>
<rect y="311" width="3" height="19" rx="1.5" fill="#887474"/>
<rect x="299" y="293" width="3" height="19" rx="1.5" fill="#887474"/>
<rect y="292" width="3" height="19" rx="1.5" fill="#887474"/>
<rect x="299" y="273" width="3" height="19" rx="1.5" fill="#887474"/>
<rect y="272" width="3" height="19" rx="1.5" fill="#887474"/>
<rect x="299" y="253" width="3" height="19" rx="1.5" fill="#887474"/>
<rect y="252" width="3" height="19" rx="1.5" fill="#887474"/>
<rect x="299" y="233" width="3" height="19" rx="1.5" fill="#887474"/>
<rect y="232" width="3" height="19" rx="1.5" fill="#887474"/>
<rect x="299" y="212" width="3" height="19" rx="1.5" fill="#887474"/>
<rect y="211" width="3" height="19" rx="1.5" fill="#887474"/>
<rect x="299" y="191" width="3" height="19" rx="1.5" fill="#887474"/>
<rect y="190" width="3" height="19" rx="1.5" fill="#887474"/>
<rect x="299" y="170" width="3" height="19" rx="1.5" fill="#887474"/>
<rect y="169" width="3" height="19" rx="1.5" fill="#887474"/>
<rect x="299" y="149" width="3" height="19" rx="1.5" fill="#887474"/>
<rect y="148" width="3" height="19" rx="1.5" fill="#887474"/>
<rect x="299" y="128" width="3" height="19" rx="1.5" fill="#887474"/>
<rect y="127" width="3" height="19" rx="1.5" fill="#887474"/>
<rect x="299" y="107" width="3" height="19" rx="1.5" fill="#887474"/>
<rect y="106" width="3" height="19" rx="1.5" fill="#887474"/>
<rect x="299" y="86" width="3" height="19" rx="1.5" fill="#887474"/>
<rect y="85" width="3" height="19" rx="1.5" fill="#887474"/>
<rect x="299" y="65" width="3" height="19" rx="1.5" fill="#887474"/>
<rect y="64" width="3" height="19" rx="1.5" fill="#887474"/>
<rect x="299" y="44" width="3" height="19" rx="1.5" fill="#887474"/>
<rect y="43" width="3" height="19" rx="1.5" fill="#887474"/>
<rect x="299" y="23" width="3" height="19" rx="1.5" fill="#887474"/>
<rect y="22" width="3" height="19" rx="1.5" fill="#887474"/>
<rect x="299" y="2" width="3" height="19" rx="1.5" fill="#887474"/>
<rect y="3" width="3" height="17" rx="1.5" fill="#887474"/>
<rect x="281" y="2.99994" width="3" height="19" rx="1.5" transform="rotate(-89.5718 281 2.99994)" fill="#887474"/>
<rect x="280" y="451" width="3" height="19" rx="1.5" transform="rotate(-89.5718 280 451)" fill="#887474"/>
<rect x="261" y="2.99994" width="3" height="19" rx="1.5" transform="rotate(-89.5718 261 2.99994)" fill="#887474"/>
<rect x="260" y="451" width="3" height="19" rx="1.5" transform="rotate(-89.5718 260 451)" fill="#887474"/>
<rect x="241" y="2.99994" width="3" height="19" rx="1.5" transform="rotate(-89.5718 241 2.99994)" fill="#887474"/>
<rect x="240" y="451" width="3" height="19" rx="1.5" transform="rotate(-89.5718 240 451)" fill="#887474"/>
<rect x="221" y="2.99994" width="3" height="19" rx="1.5" transform="rotate(-89.5718 221 2.99994)" fill="#887474"/>
<rect x="220" y="451" width="3" height="19" rx="1.5" transform="rotate(-89.5718 220 451)" fill="#887474"/>
<rect x="202" y="2.99994" width="3" height="19" rx="1.5" transform="rotate(-89.5718 202 2.99994)" fill="#887474"/>
<rect x="201" y="451" width="3" height="19" rx="1.5" transform="rotate(-89.5718 201 451)" fill="#887474"/>
<rect x="182" y="2.99994" width="3" height="19" rx="1.5" transform="rotate(-89.5718 182 2.99994)" fill="#887474"/>
<rect x="181" y="451" width="3" height="19" rx="1.5" transform="rotate(-89.5718 181 451)" fill="#887474"/>
<rect x="162" y="2.99994" width="3" height="19" rx="1.5" transform="rotate(-89.5718 162 2.99994)" fill="#887474"/>
<rect x="161" y="451" width="3" height="19" rx="1.5" transform="rotate(-89.5718 161 451)" fill="#887474"/>
<rect x="142" y="2.99994" width="3" height="19" rx="1.5" transform="rotate(-89.5718 142 2.99994)" fill="#887474"/>
<rect x="141" y="451" width="3" height="19" rx="1.5" transform="rotate(-89.5718 141 451)" fill="#887474"/>
<rect x="122" y="2.99994" width="3" height="19" rx="1.5" transform="rotate(-89.5718 122 2.99994)" fill="#887474"/>
<rect x="121" y="451" width="3" height="19" rx="1.5" transform="rotate(-89.5718 121 451)" fill="#887474"/>
<rect x="102" y="2.99994" width="3" height="19" rx="1.5" transform="rotate(-89.5718 102 2.99994)" fill="#887474"/>
<rect x="101" y="451" width="3" height="19" rx="1.5" transform="rotate(-89.5718 101 451)" fill="#887474"/>
<rect x="82" y="2.99994" width="3" height="19" rx="1.5" transform="rotate(-89.5718 82 2.99994)" fill="#887474"/>
<rect x="81" y="451" width="3" height="19" rx="1.5" transform="rotate(-89.5718 81 451)" fill="#887474"/>
<rect x="62" y="2.99994" width="3" height="19" rx="1.5" transform="rotate(-89.5718 62 2.99994)" fill="#887474"/>
<rect x="61" y="451" width="3" height="19" rx="1.5" transform="rotate(-89.5718 61 451)" fill="#887474"/>
<rect x="42" y="2.99994" width="3" height="19" rx="1.5" transform="rotate(-89.5718 42 2.99994)" fill="#887474"/>
<rect x="41" y="451" width="3" height="19" rx="1.5" transform="rotate(-89.5718 41 451)" fill="#887474"/>
<rect x="22" y="2.99994" width="3" height="19" rx="1.5" transform="rotate(-89.5718 22 2.99994)" fill="#887474"/>
<rect x="21" y="451" width="3" height="19" rx="1.5" transform="rotate(-89.5718 21 451)" fill="#887474"/>
<rect x="2.98682" y="3.00732" width="3" height="18.0131" rx="1.5" transform="rotate(-89.5718 2.98682 3.00732)" fill="#887474"/>
<rect x="1.9906" y="451.007" width="3" height="18.0094" rx="1.5" transform="rotate(-89.5718 1.9906 451.007)" fill="#887474"/>
</svg>
