<svg width="60" height="60" viewBox="0 0 60 60" fill="none" xmlns="http://www.w3.org/2000/svg">
<path d="M58.75 9.75C58.75 9.08696 58.4866 8.45107 58.0178 7.98223C57.5489 7.51339 56.913 7.25 56.25 7.25H30C29.337 7.25 28.7011 7.51339 28.2322 7.98223C27.7634 8.45107 27.5 9.08696 27.5 9.75C27.5 10.413 27.7634 11.0489 28.2322 11.5178C28.7011 11.9866 29.337 12.25 30 12.25H56.25C56.913 12.25 57.5489 11.9866 58.0178 11.5178C58.4866 11.0489 58.75 10.413 58.75 9.75Z" fill="#5B1C01"/>
<path d="M3.75 12.25H10.4375C11.0272 13.9181 12.1877 15.3239 13.7137 16.2191C15.2397 17.1143 17.0331 17.4412 18.7768 17.142C20.5206 16.8428 22.1024 15.9368 23.2428 14.5842C24.3831 13.2315 25.0086 11.5192 25.0086 9.75002C25.0086 7.9808 24.3831 6.26854 23.2428 4.91587C22.1024 3.56319 20.5206 2.6572 18.7768 2.35803C17.0331 2.05885 15.2397 2.38574 13.7137 3.28094C12.1877 4.17613 11.0272 5.58198 10.4375 7.25002H3.75C3.08696 7.25002 2.45107 7.51341 1.98223 7.98225C1.51339 8.45109 1.25 9.08697 1.25 9.75002C1.25 10.4131 1.51339 11.0489 1.98223 11.5178C2.45107 11.9866 3.08696 12.25 3.75 12.25ZM17.5 7.25002C17.9945 7.25002 18.4778 7.39664 18.8889 7.67134C19.3 7.94605 19.6205 8.33649 19.8097 8.79331C19.9989 9.25012 20.0484 9.75279 19.952 10.2377C19.8555 10.7227 19.6174 11.1682 19.2678 11.5178C18.9181 11.8674 18.4727 12.1055 17.9877 12.202C17.5028 12.2984 17.0001 12.2489 16.5433 12.0597C16.0865 11.8705 15.696 11.5501 15.4213 11.1389C15.1466 10.7278 15 10.2445 15 9.75002C15 9.08697 15.2634 8.45109 15.7322 7.98225C16.2011 7.51341 16.837 7.25002 17.5 7.25002Z" fill="#5B1C01"/>
<path d="M24.7391 22H3.26087C2.66125 22 2.08619 22.2634 1.66219 22.7322C1.2382 23.2011 1 23.837 1 24.5C1 25.163 1.2382 25.7989 1.66219 26.2678C2.08619 26.7366 2.66125 27 3.26087 27H24.7391C25.3387 27 25.9138 26.7366 26.3378 26.2678C26.7618 25.7989 27 25.163 27 24.5C27 23.837 26.7618 23.2011 26.3378 22.7322C25.9138 22.2634 25.3387 22 24.7391 22Z" fill="#5B1C01"/>
<path d="M24.7391 34H3.26087C2.66125 34 2.08619 34.2634 1.66219 34.7322C1.2382 35.2011 1 35.837 1 36.5C1 37.163 1.2382 37.7989 1.66219 38.2678C2.08619 38.7366 2.66125 39 3.26087 39H24.7391C25.3387 39 25.9138 38.7366 26.3378 38.2678C26.7618 37.7989 27 37.163 27 36.5C27 35.837 26.7618 35.2011 26.3378 34.7322C25.9138 34.2634 25.3387 34 24.7391 34Z" fill="#5B1C01"/>
<path d="M55.7391 22H34.2609C33.6612 22 33.0862 22.2634 32.6622 22.7322C32.2382 23.2011 32 23.837 32 24.5C32 25.163 32.2382 25.7989 32.6622 26.2678C33.0862 26.7366 33.6612 27 34.2609 27H55.7391C56.3387 27 56.9138 26.7366 57.3378 26.2678C57.7618 25.7989 58 25.163 58 24.5C58 23.837 57.7618 23.2011 57.3378 22.7322C56.9138 22.2634 56.3387 22 55.7391 22Z" fill="#5B1C01"/>
<path d="M55.7391 34H34.2609C33.6612 34 33.0862 34.2634 32.6622 34.7322C32.2382 35.2011 32 35.837 32 36.5C32 37.163 32.2382 37.7989 32.6622 38.2678C33.0862 38.7366 33.6612 39 34.2609 39H55.7391C56.3387 39 56.9138 38.7366 57.3378 38.2678C57.7618 37.7989 58 37.163 58 36.5C58 35.837 57.7618 35.2011 57.3378 34.7322C56.9138 34.2634 56.3387 34 55.7391 34Z" fill="#5B1C01"/>
<path d="M56.25 47.5H35C34.337 47.5 33.7011 47.7634 33.2322 48.2322C32.7634 48.7011 32.5 49.337 32.5 50C32.5 50.663 32.7634 51.2989 33.2322 51.7678C33.7011 52.2366 34.337 52.5 35 52.5H56.25C56.913 52.5 57.5489 52.2366 58.0178 51.7678C58.4866 51.2989 58.75 50.663 58.75 50C58.75 49.337 58.4866 48.7011 58.0178 48.2322C57.5489 47.7634 56.913 47.5 56.25 47.5Z" fill="#5B1C01"/>
<path d="M22.5 42.5C20.9505 42.5018 19.4396 42.9834 18.1749 43.8788C16.9103 44.7741 15.954 46.0391 15.4375 47.5H3.75C3.08696 47.5 2.45107 47.7634 1.98223 48.2322C1.51339 48.7011 1.25 49.337 1.25 50C1.25 50.663 1.51339 51.2989 1.98223 51.7678C2.45107 52.2366 3.08696 52.5 3.75 52.5H15.4375C15.896 53.7967 16.7021 54.9424 17.7679 55.8117C18.8336 56.6811 20.1179 57.2406 21.4803 57.4292C22.8427 57.6177 24.2307 57.4281 25.4925 56.8809C26.7543 56.3337 27.8413 55.4501 28.6348 54.3266C29.4282 53.2032 29.8974 51.8832 29.9911 50.5111C30.0849 49.1389 29.7995 47.7674 29.1662 46.5465C28.5329 45.3257 27.5761 44.3024 26.4004 43.5888C25.2247 42.8751 23.8754 42.4984 22.5 42.5ZM22.5 52.5C22.0055 52.5 21.5222 52.3534 21.1111 52.0787C20.7 51.804 20.3795 51.4135 20.1903 50.9567C20.0011 50.4999 19.9516 49.9972 20.048 49.5123C20.1445 49.0273 20.3826 48.5819 20.7322 48.2322C21.0819 47.8826 21.5273 47.6445 22.0123 47.548C22.4972 47.4516 22.9999 47.5011 23.4567 47.6903C23.9135 47.8795 24.304 48.2 24.5787 48.6111C24.8534 49.0222 25 49.5056 25 50C25 50.663 24.7366 51.2989 24.2678 51.7678C23.7989 52.2366 23.163 52.5 22.5 52.5Z" fill="#5B1C01"/>
</svg>
