<svg width="44" height="49" viewBox="0 0 44 49" fill="none" xmlns="http://www.w3.org/2000/svg">
<path d="M35 0H43C43.6 0 44 0.4 44 1V30C44 30.6 43.5 31 43 31H35C34.4 31 34 30.6 34 30V1C34 0.4 34.5 0 35 0ZM42 2H36V29H42V2ZM18.2 2C18.9 2 19.6 2 20.3 2C23 2.1 26.2 2.6 28.5 2.9C29.6 3.1 30.6 3.2 31.2 3.2C31.7 3.2 32.1 3.7 32.1 4.2V27.9C32.1 28.3 31.8 28.7 31.5 28.8L31 29C28.7 29.8 24 31.6 21.6 34.2C19 36.9 17.8 40.6 17.8 45C17.7 46.4 16.9 49 14.2 49C13.7 49 13.1 48.9 12.4 48.7C12.3 48.7 12.1 48.6 12 48.5C10.9 47.4 7.29999 40.9 10.7 31H4.99999C4.59999 31 1.59999 30.9 0.399988 27.1C0.199988 26.6 -0.600012 24.5 1.19999 21.9C0.699988 21 -0.100012 19.1 0.799988 17.1C0.899988 16.9 1.29999 15.7 2.09999 14.9C1.59999 13.2 1.69999 10.4 4.09999 8.4C4.19999 7.2 4.69999 4.4 7.09999 3.4C7.39999 3.4 11.6 2 18.2 2ZM30 5.1C29.5 5 28.8 4.9 28.1 4.8C25.8 4.5 22.7 4.1 20.1 3.9C12.7 3.7 7.89999 5.3 7.79999 5.3C6.09999 6 6.09999 8.9 6.09999 8.9C6.09999 9.2 5.89999 9.5 5.69999 9.7C2.89999 11.7 4.19999 14.7 4.19999 14.9C4.39999 15.4 4.19999 15.9 3.69999 16.2C3.29999 16.4 2.79999 17.3 2.59999 17.8C1.79999 19.6 3.09999 21.3 3.09999 21.3C3.39999 21.7 3.39999 22.2 3.09999 22.6C1.39999 24.6 2.09999 26.2 2.09999 26.3C2.09999 26.3 2.09999 26.4 2.19999 26.4C2.99999 28.9 4.79999 29 4.99999 29H12.2C12.5 29 12.8 29.2 13 29.4C13.2 29.7 13.2 30 13.1 30.3C9.59999 39.4 12.4 45.6 13.3 46.9C13.6 47 13.9 47 14.1 47C15.5 47 15.6 45.2 15.6 45C15.6 40.1 17 36 19.9 32.9C22.6 30 27.4 28.2 29.9 27.3V5.1H30ZM39 4C39.6 4 40 4.5 40 5C40 5.6 39.6 6 39 6C38.4 6 38 5.5 38 5C38 4.5 38.5 4 39 4Z" fill="white"/>
</svg>
